<?xml version="1.0" encoding="UTF-8" standalone="no"?>
<!DOCTYPE svg PUBLIC "-//W3C//DTD SVG 1.1//EN" "http://www.w3.org/Graphics/SVG/1.1/DTD/svg11.dtd">
<svg width="100%" height="100%" viewBox="0 0 2479 2479" version="1.1" xmlns="http://www.w3.org/2000/svg" xmlns:xlink="http://www.w3.org/1999/xlink" xml:space="preserve" xmlns:serif="http://www.serif.com/" style="fill-rule:evenodd;clip-rule:evenodd;stroke-linecap:round;stroke-linejoin:round;stroke-miterlimit:1.5;">
    <g transform="matrix(1,0,0,1,-0.0187015,-2908.56)">
        <g id="Bunso--the-Tarsier--Idle-" serif:id="Bunso, the Tarsier (Idle)" transform="matrix(1.04452,0,0,0.902359,-1513.39,3049.21)">
            <rect x="1448.9" y="-155.861" width="2372.81" height="2746.61" style="fill:none;"/>
            <clipPath id="_clip1">
                <rect x="1448.9" y="-155.861" width="2372.81" height="2746.61"/>
            </clipPath>
            <g clip-path="url(#_clip1)">
                <g id="Vector-Shapes" serif:id="Vector Shapes" transform="matrix(1.18347,0,0,1.18347,-419.005,-224.265)">
                    <g id="Body" transform="matrix(1.58605,0,0,1.83593,1775.82,-114.859)">
                        <g id="Tail" transform="matrix(0.603623,0,0,0.603623,-1080.71,85.6115)">
                            <g transform="matrix(1,0,0,1,1448.9,-155.861)">
                                <path d="M836.581,1960.44C826.441,1963.68 800.108,1991.66 767.291,2006.81C722.555,2027.46 670.093,2036.19 670.093,2036.19C648.748,2034.03 549.692,2053.74 478.416,2007.74C335.468,1915.5 319.977,1811.81 316.775,1790.38C301.331,1687.02 337.207,1628.78 345.179,1603.35C363.234,1545.73 360.458,1481.84 328.313,1424.52" style="fill:none;stroke:rgb(181,117,58);stroke-width:59.15px;"/>
                            </g>
                            <g transform="matrix(1,0,0,1,1448.9,-155.861)">
                                <path d="M345.632,1445.39C326.831,1442.32 264.206,1440.24 231.66,1417.05C161.033,1366.72 130.36,1259.94 150.133,1254.25C154.006,1256.66 143.097,1256.8 187.441,1285.74C176.675,1232.35 174.23,1208.86 182.074,1157.2C182.953,1151.41 192.104,1081.92 195.057,1082.49C195.487,1082.68 222.344,1083.1 263.299,1115.14C312.91,1153.94 344.554,1203.87 350.147,1212.7C358.702,1190.33 358.622,1165.34 358.622,1165.34C360.227,1164.15 362.687,1166.12 366.233,1171.08C382.268,1193.49 424.575,1261.71 408.382,1353.52C406.836,1362.29 394.062,1434.71 345.632,1445.39Z" style="fill:rgb(181,117,58);"/>
                            </g>
                        </g>
                        <g id="Feet" transform="matrix(0.603623,0,0,0.603623,-1076.81,85.6115)">
                            <g id="Left-Foot" serif:id="Left Foot">
                                <g transform="matrix(1,0,0,1,1448.9,-155.861)">
                                    <path d="M901.602,2103.02C735.353,2104.48 682.14,2159.7 686.033,2169.99C688.585,2176.73 723.235,2168.76 726.385,2168.03C782.516,2155.12 776.671,2155.44 778.388,2158.61C780.105,2161.77 736.688,2187.01 736.688,2187.01C728.828,2194.79 719.255,2201.16 713.108,2210.36C710.152,2214.78 709.203,2220.96 710.551,2226.11C713.306,2236.62 733.327,2234.2 735.464,2233.49C757.076,2226.4 818.394,2189.6 828.303,2185.37C839.113,2180.74 816.021,2205.1 807.602,2217.5C805.632,2220.4 785.324,2250.31 799.561,2260.6C801.893,2262.28 811.822,2264.88 813.381,2263.78C826.927,2254.25 887.479,2199.22 897.847,2192.58C906.542,2187 940.963,2176.39 974.335,2176.14C1011.37,2175.85 1032.38,2169.47 1038.92,2159.27C1045.04,2149.73 1047.75,2108.19 989.995,2105.89L901.602,2103.02Z" style="fill:rgb(212,168,122);"/>
                                </g>
                                <g transform="matrix(1.00079,0,0,1,1448.34,-155.861)">
                                    <path d="M784.326,1658.64C635.647,1843.63 756.156,1985.35 818.539,2046.97C919.008,2146.2 1020.63,2132.45 1028.22,2117.37C1034.82,2104.25 1009.09,2028.23 1008.81,2010.46C1007.61,1935.67 1112.58,1881.73 1112.58,1881.73" style="fill:rgb(181,117,58);"/>
                                </g>
                            </g>
                            <g id="Right-Foot" serif:id="Right Foot" transform="matrix(-1,0,0,1,5257.7,0)">
                                <g transform="matrix(1,0,0,1,1448.9,-155.861)">
                                    <path d="M901.602,2103.02C735.353,2104.48 682.14,2159.7 686.033,2169.99C688.585,2176.73 723.235,2168.76 726.385,2168.03C782.516,2155.12 776.671,2155.44 778.388,2158.61C780.105,2161.77 736.688,2187.01 736.688,2187.01C728.828,2194.79 719.255,2201.16 713.108,2210.36C710.152,2214.78 709.203,2220.96 710.551,2226.11C713.306,2236.62 733.327,2234.2 735.464,2233.49C757.076,2226.4 818.394,2189.6 828.303,2185.37C839.113,2180.74 816.021,2205.1 807.602,2217.5C805.632,2220.4 785.324,2250.31 799.561,2260.6C801.893,2262.28 811.822,2264.88 813.381,2263.78C826.927,2254.25 887.479,2199.22 897.847,2192.58C906.542,2187 940.963,2176.39 974.335,2176.14C1011.37,2175.85 1032.38,2169.47 1038.92,2159.27C1045.04,2149.73 1047.75,2108.19 989.995,2105.89L901.602,2103.02Z" style="fill:rgb(212,168,122);"/>
                                </g>
                                <g transform="matrix(1.00079,0,0,1,1448.34,-155.861)">
                                    <path d="M784.326,1658.64C635.647,1843.63 756.156,1985.35 818.539,2046.97C919.008,2146.2 1020.63,2132.45 1028.22,2117.37C1034.82,2104.25 1009.09,2028.23 1008.81,2010.46C1007.61,1935.67 1112.58,1881.73 1112.58,1881.73" style="fill:rgb(181,117,58);"/>
                                </g>
                            </g>
                        </g>
                        <g id="Belly" transform="matrix(1,0,0,1,3.89932,0)">
                            <g transform="matrix(0.757333,0,0,0.753773,-347.415,-433.484)">
                                <circle cx="1129.73" cy="1748.38" r="349.04" style="fill:rgb(181,117,58);"/>
                            </g>
                            <g transform="matrix(2.03104,0,0,1.4726,-1708.63,-1338.18)">
                                <ellipse cx="1092.37" cy="1547.83" rx="94.032" ry="122.745" style="fill:rgb(232,184,122);"/>
                            </g>
                        </g>
                        <g id="Left-Arm" serif:id="Left Arm" transform="matrix(0.603623,0,0,0.603623,-1081.73,88.2388)">
                            <g id="Left-Arm1" serif:id="Left Arm" transform="matrix(1,0,0,1,1448.9,-155.861)">
                                <path d="M791.82,1100.76C874.308,1056.95 1050.28,1123.86 949.479,1254.67C873.28,1353.57 833.445,1391.27 754.332,1390.49L754.219,1392.11C594.072,1573.32 658.267,1586.07 596.22,1658.44C489.551,1600.73 486.664,1659.16 487.277,1640.87C487.323,1639.48 483.522,1610.97 489.342,1569.19C528.167,1290.51 709.331,1144.58 791.82,1100.76Z" style="fill:rgb(181,117,58);"/>
                            </g>
                            <g transform="matrix(1,0,0,1,1448.9,-155.861)">
                                <path d="M491.665,1635.38C460.883,1675.49 457.99,1704.9 444.417,1726.36C432.232,1745.62 395.634,1825.61 412.564,1828.95C432.063,1832.8 440.989,1797.83 447.117,1788.75C452.66,1780.54 472.149,1755.55 476.237,1757.08C481.315,1758.98 468.849,1756.2 464.872,1836.64C462.99,1874.69 478.383,1899.71 486.1,1899.79C515.477,1900.1 503.065,1857.82 507.986,1830.79C513.354,1801.29 521.987,1781.37 532.283,1767.5C547.049,1774.4 518.272,1907.39 569.047,1910.66C595.297,1912.36 580.459,1847.73 582.15,1817.27C585.106,1764.03 582.756,1745.38 586.883,1742.97C596.394,1737.41 600.648,1745.12 610.429,1759.52C624.431,1780.13 637.29,1795.84 652.405,1791.96C672.393,1786.82 634.869,1718.07 634.869,1718.07C634.869,1718.07 602.527,1664.02 599.786,1661.61C552.761,1620.19 506.266,1630.55 491.665,1635.38Z" style="fill:rgb(212,168,122);"/>
                            </g>
                        </g>
                        <g id="Right-Arm" serif:id="Right Arm" transform="matrix(0.603623,0,0,0.603623,-1080.71,85.6115)">
                            <g transform="matrix(1,0,0,1,1448.9,-155.861)">
                                <path d="M1595.19,1335.74C1607.42,1331.48 1733.11,1300.19 1794.88,1246.37C1827.03,1218.36 1885.9,1168.88 1952.24,1087.46C1965.93,1070.67 2058.12,964.026 2065.71,862.62C2009.79,864.214 1991.52,862.068 1961,811.302C1921.4,875.663 1887.44,918.384 1844.05,962.19C1788.66,1018.11 1716.43,1064.64 1597.86,1105.52C1597.86,1105.52 1444.39,1147.3 1444.21,1163.19C1443.76,1201.57 1595.19,1335.74 1595.19,1335.74Z" style="fill:rgb(181,117,58);"/>
                            </g>
                            <g transform="matrix(1,0,0,1,1448.9,-155.861)">
                                <path d="M1959.96,820.245C1961.79,831.446 1994.19,869.588 2026.73,869.695C2111.61,869.974 2096.49,818.676 2151.15,779.695C2171.26,765.356 2228.84,736.842 2219.26,716.575C2205.5,687.437 2112.48,759.27 2109.03,745.057C2107.84,740.147 2110.9,710.028 2139.26,687.253C2140.7,686.088 2181.61,659.086 2185.01,630.94C2187.56,609.854 2155.28,612.305 2131.81,632.232C2082.72,673.909 2058.33,721.091 2057.95,714.609C2056.65,692.143 2063.73,655.367 2065.71,649.39C2069.55,637.851 2075.92,627.309 2080.62,616.097C2091.81,589.44 2076.01,570.113 2056.02,590.852C2039.85,607.62 2021.32,643.321 2018.88,654.324C2015.48,669.724 2018.59,720.16 1988.09,743.418C1980.23,749.411 1972.59,729.506 1971.94,727.83C1956.79,688.35 1960.79,684.51 1947.52,678.186C1923.65,666.817 1921.78,716.396 1932.85,746.184C1937.87,759.692 1959.26,803.608 1960.82,812.805C1960.82,812.805 1959.96,820.245 1959.96,820.245Z" style="fill:rgb(212,168,122);"/>
                            </g>
                        </g>
                    </g>
                    <g id="Heaed" transform="matrix(1.58605,0,0,1.83593,1775.82,-114.859)">
                        <g id="Head">
                            <g id="Ears">
                                <g id="Left-Ear" serif:id="Left Ear" transform="matrix(0.569791,0,0,0.569791,-1003.88,105.795)">
                                    <g transform="matrix(1.47042,0,0,1.47042,1204.87,-425.82)">
                                        <circle cx="589.381" cy="559.611" r="135.71" style="fill:rgb(196,134,74);"/>
                                    </g>
                                    <g transform="matrix(1.01437,0,0,1.01437,1476.59,-167.666)">
                                        <circle cx="589.381" cy="559.611" r="135.71" style="fill:rgb(232,184,122);"/>
                                    </g>
                                </g>
                                <g id="Right-Ear" serif:id="Right Ear" transform="matrix(0.569791,0,0,0.569791,-345.177,105.795)">
                                    <g transform="matrix(1.47042,0,0,1.47042,1204.87,-425.82)">
                                        <circle cx="589.381" cy="559.611" r="135.71" style="fill:rgb(196,134,74);"/>
                                    </g>
                                    <g transform="matrix(1.01437,0,0,1.01437,1476.59,-167.666)">
                                        <circle cx="589.381" cy="559.611" r="135.71" style="fill:rgb(232,184,122);"/>
                                    </g>
                                </g>
                            </g>
                            <g id="Head1" serif:id="Head" transform="matrix(1.14619,0,0,1.89792,-893.639,-509.569)">
                                <path d="M1224.63,358.456C1307.64,358.456 1382.45,376.422 1434.82,405.113C1482.28,431.109 1503.42,466.73 1511.3,504.128C1532.02,602.49 1402.21,649.428 1224.63,649.8C1043.48,650.179 908.066,598.983 930.06,504.128C938.55,467.508 966.05,432.252 1012.12,406.399C1064.59,376.96 1140.39,358.456 1224.63,358.456Z" style="fill:rgb(196,134,74);"/>
                            </g>
                            <g transform="matrix(0.603623,0,0,0.603623,-206.118,-8.46964)">
                                <path d="M1106.61,305.577C1171.4,232.359 1183.49,181.338 1216.25,169.887C1222.15,167.823 1228.82,223.647 1220.89,265.243C1243.29,262.708 1262.37,234.299 1317.05,232.383C1320.43,269.061 1306.35,281.841 1287.09,308.622C1298.45,318.009 1298.51,317.468 1312.28,323.309" style="fill:rgb(196,134,74);"/>
                            </g>
                            <g id="Cheeks" transform="matrix(0.603623,0,0,0.603623,-1080.71,85.6115)">
                                <g transform="matrix(1.72965,0,0,1.12844,861.467,-310.802)">
                                    <circle cx="839.448" cy="1049.7" r="48.467" style="fill:rgb(240,168,160);"/>
                                </g>
                                <g transform="matrix(1.72965,0,0,1.12844,1499.09,-310.802)">
                                    <circle cx="839.448" cy="1049.7" r="48.467" style="fill:rgb(240,168,160);"/>
                                </g>
                            </g>
                        </g>
                        <g id="Eyes">
                            <g id="Left-Eye" serif:id="Left Eye" transform="matrix(1,0,0,1,-2.36451,-1.47079)">
                                <g id="Outline" transform="matrix(2.08368,0,0,2.08368,-313.285,-423.027)">
                                    <circle cx="324.114" cy="418.36" r="58.528" style="fill:rgb(61,42,42);"/>
                                </g>
                                <g id="Iris" transform="matrix(1.79801,0,0,1.79801,-220.695,-303.514)">
                                    <circle cx="324.114" cy="418.36" r="58.528" style="fill:rgb(232,163,58);"/>
                                </g>
                                <g id="Pupil" transform="matrix(1.01807,0,0,1.01807,32.0941,22.7815)">
                                    <circle cx="324.114" cy="418.36" r="58.528" style="fill:rgb(26,17,17);"/>
                                </g>
                                <g id="Shine" transform="matrix(0.429239,0,0,0.432659,187.478,232.429)">
                                    <circle cx="324.114" cy="418.36" r="58.528" style="fill:rgb(254,253,249);"/>
                                </g>
                            </g>
                            <g id="Right-Eye" serif:id="Right Eye" transform="matrix(1,0,0,1,298.284,-1.47079)">
                                <g id="Outline1" serif:id="Outline" transform="matrix(2.08368,0,0,2.08368,-313.285,-423.027)">
                                    <circle cx="324.114" cy="418.36" r="58.528" style="fill:rgb(61,42,42);"/>
                                </g>
                                <g id="Iris1" serif:id="Iris" transform="matrix(1.79801,0,0,1.79801,-220.695,-303.514)">
                                    <circle cx="324.114" cy="418.36" r="58.528" style="fill:rgb(232,163,58);"/>
                                </g>
                                <g id="Pupil1" serif:id="Pupil" transform="matrix(1.01807,0,0,1.01807,32.0941,22.7815)">
                                    <circle cx="324.114" cy="418.36" r="58.528" style="fill:rgb(26,17,17);"/>
                                </g>
                                <g id="Shine1" serif:id="Shine" transform="matrix(0.429239,0,0,0.432659,187.478,232.429)">
                                    <circle cx="324.114" cy="418.36" r="58.528" style="fill:rgb(254,253,249);"/>
                                </g>
                            </g>
                        </g>
                        <g id="Smile" transform="matrix(0.603623,0,0,0.574496,-206.118,20.8027)">
                            <path d="M1070.7,1005.02C1101.64,1031.58 1125.09,1064.39 1196.98,1060.73C1239.04,1058.59 1283.45,1022.89 1293.84,1009.48" style="fill:none;stroke:rgb(74,51,40);stroke-width:25.97px;"/>
                        </g>
                        <g id="Nose" transform="matrix(0.603623,0,0,0.603623,-1080.71,85.6115)">
                            <g transform="matrix(1.323,0,0,1,1062.65,-162.414)">
                                <circle cx="1183.41" cy="921.076" r="48.281" style="fill:rgb(240,170,111);"/>
                            </g>
                            <g>
                                <g transform="matrix(1,0,0,1,1448.9,-155.861)">
                                    <path d="M1146.85,909.834C1151.08,917.915 1151.96,920.027 1165.01,926.971" style="fill:none;stroke:rgb(74,51,40);stroke-width:12.67px;"/>
                                </g>
                                <g transform="matrix(1,0,0,1,1448.9,-155.861)">
                                    <path d="M1195.8,927.884C1205.89,925.334 1212.69,915.904 1216.25,911.643" style="fill:none;stroke:rgb(74,51,40);stroke-width:12.67px;"/>
                                </g>
                            </g>
                        </g>
                    </g>
                </g>
            </g>
        </g>
    </g>
</svg>
